:SAMPLES-PER-SECOND 30
:FULLY-SPECIFIED
:DEGREES
153
root  50.7849 38.4599 3.49572 -161.322 -76.1385 154.954
RightUpLeg  -18.8597 -4.0868 -7.62147
RightLeg  18.6309 4.67752 1.47178
RightFoot  -1.88929 -0.852338 10.1261
RightToes  -2.9104e-010 0 -3.6325e-017
Spine  8.01581 1.92916 1.27002
Spine1  4.71229 3.67321 -7.90781
HEad  2.27126 -20.6406 -2.76474
LeftShoulder1  -0.127453 3.86092 -29.5285
LeftArm  1.39014 1.36194 -39.7616
LeftForeArm  20.7536 -23.2573 -3.93367
LeftHand  -0.0164493 5.97913 2.36596
RightShoulder  -0.216235 -4.18644 24.1348
RightArm  -6.80296 37.512 36.9749
RightForeArm  -17.5996 4.08403 2.15726
RightHand  -0.934499 12.5828 -6.44007
LeftUpLeg  3.91806 6.35812 -7.31457
LeftLeg  15.6128 7.79608 0.494661
LeftFoot  -13.7962 0.193888 5.18035
LeftToes  -3.37426e-010 -1.91496e-010 5.23909e-011
154
root  49.7811 38.4121 3.39292 -158.606 -76.2054 152.8
RightUpLeg  -18.4931 -5.8026 -7.40584
RightLeg  8.01775 6.2047 0.250223
RightFoot  -2.0806 -0.767748 9.28561
RightToes  -2.9104e-010 0 -3.6325e-017
Spine  7.04651 2.02294 2.13364
Spine1  5.69621 3.99869 -8.07681
HEad  1.919 -21.9796 -2.61377
LeftShoulder1  0.0049523 3.48994 -29.065
LeftArm  1.62301 -0.285492 -39.6396
LeftForeArm  20.0224 -23.9199 -4.0612
LeftHand  0.00186853 6.86824 2.80143
RightShoulder  -0.135043 -3.94031 22.8741
RightArm  -9.91736 41.1908 34.9177
RightForeArm  -18.8297 2.65868 1.331
RightHand  -1.01458 13.4189 -6.67648
LeftUpLeg  5.6224 5.97637 -7.91803
LeftLeg  14.2269 7.93744 0.251256
LeftFoot  -14.7331 0.234945 4.9416
LeftToes  -3.37426e-010 -1.91496e-010 5.23909e-011
155
root  48.7044 38.3091 3.24354 -156.176 -76.4874 150.253
RightUpLeg  -17.5496 -7.74543 -7.11443
RightLeg  0.00207275 8.60267 -1.0163
RightFoot  -2.51232 -0.743729 9.38967
RightToes  -2.9104e-010 0 -3.6325e-017
Spine  6.72871 2.09323 2.64321
Spine1  6.65528 4.13846 -7.85373
HEad  1.52087 -23.4432 -2.52041
LeftShoulder1  0.117161 3.16458 -28.4781
LeftArm  0.606393 -1.15666 -39.9168
LeftForeArm  21.1688 -24.5781 -4.14371
LeftHand  -0.0155823 5.97432 2.74218
RightShoulder  -0.106983 -3.85686 21.8004
RightArm  -12.5811 44.159 32.5556
RightForeArm  -20.0555 1.37121 0.734183
RightHand  -1.0675 14.1733 -6.73665
LeftUpLeg  8.17448 5.8675 -8.33014
LeftLeg  12.9692 7.6277 0.0350723
LeftFoot  -15.8749 0.28021 4.6667
LeftToes  -3.37426e-010 -1.91496e-010 5.23909e-011
156
root  47.5384 38.1014 3.03017 -154.971 -76.6781 148.923
RightUpLeg  -17.3629 -8.12544 -7.21664
RightLeg  -2.34173 7.39899 -0.944665
RightFoot  -2.99171 -0.709634 9.32026
RightToes  -2.9104e-010 0 -3.6325e-017
Spine  6.07344 2.1398 3.55229
Spine1  7.96181 4.32137 -8.00773
HEad  1.27818 -24.432 -2.45166
LeftShoulder1  0.220327 2.8602 -28.0717
LeftArm  -0.0467699 -1.61421 -39.9641
LeftForeArm  21.5523 -25.1467 -4.24494
LeftHand  -0.00771867 6.36716 2.73133
RightShoulder  -0.069515 -3.73432 20.6771
RightArm  -15.2876 46.5535 30.5228
RightForeArm  -22.0549 0.200737 0.10071
RightHand  -1.31954 15.0598 -7.9054
LeftUpLeg  10.4096 6.20734 -8.28626
LeftLeg  12.8341 7.10906 -0.0195959
LeftFoot  -17.5736 0.346835 4.42542
LeftToes  -3.37426e-010 -1.91496e-010 5.23909e-011
157
root  46.3457 37.8684 2.78928 -154.86 -77.5068 149.094
RightUpLeg  -18.5583 -8.10323 -6.90425
RightLeg  1.50753 3.36689 -0.305436
RightFoot  -0.828565 -0.603136 6.90992
RightToes  -2.9104e-010 0 -3.6325e-017
Spine  6.26452 1.88724 4.76343
Spine1  7.62338 3.98117 -7.63543
HEad  1.80541 -25.2353 -3.29754
LeftShoulder1  0.18807 2.96263 -28.6037
LeftArm  -0.263147 -1.27137 -39.3631
LeftForeArm  21.7479 -25.2839 -4.26415
LeftHand  -0.0382712 4.79103 2.91068
RightShoulder  -0.0726409 -3.75327 19.9527
RightArm  -16.501 48.2324 28.6668
RightForeArm  -22.9232 -0.667175 0.0343677
RightHand  -1.38609 15.0642 -8.26572
LeftUpLeg  11.8446 6.58585 -7.6828
LeftLeg  13.7051 6.06946 0.495865
LeftFoot  -19.5909 0.412608 4.08683
LeftToes  -3.37426e-010 -1.91496e-010 5.23909e-011
158
root  45.1098 37.7632 2.52525 -159.046 -78.5423 153.463
RightUpLeg  -19.9976 -7.55463 -5.67892
RightLeg  7.11056 0.862123 -0.140046
RightFoot  4.94967 -0.188821 1.38703
RightToes  -2.9104e-010 0 -3.6325e-017
Spine  6.6268 1.54531 7.71251
Spine1  7.4591 3.74328 -7.68679
HEad  2.28048 -25.9385 -3.96281
LeftShoulder1  0.192188 2.94733 -28.3753
LeftArm  -0.117366 0.282693 -39.149
LeftForeArm  21.5852 -25.4271 -4.30362
LeftHand  -0.0249533 5.42644 3.25773
RightShoulder  -0.152637 -4.06022 19.7234
RightArm  -17.6469 48.5034 27.9978
RightForeArm  -24.211 0.657281 -0.105494
RightHand  -1.55684 15.7689 -8.94444
LeftUpLeg  13.9222 6.73542 -6.22793
LeftLeg  13.7633 5.4088 1.14533
LeftFoot  -20.7071 0.383927 3.17418
LeftToes  -3.37426e-010 -1.91496e-010 5.23909e-011
159
root  43.7852 37.6091 2.22331 -165.883 -79.7098 160.356
RightUpLeg  -20.4753 -7.26344 -4.46526
RightLeg  11.5547 1.36879 0.194467
RightFoot  8.80657 -0.150761 1.16157
RightToes  -2.9104e-010 0 -3.6325e-017
Spine  6.00159 1.05624 10.14
Spine1  8.44478 3.15155 -6.88843
HEad  2.38605 -26.3003 -5.13387
LeftShoulder1  0.178076 2.99534 -28.9693
LeftArm  0.613213 1.99395 -38.7075
LeftForeArm  21.3285 -25.3319 -4.29686
LeftHand  -0.0124725 5.97303 3.27599
RightShoulder  -0.196433 -4.23281 19.5206
RightArm  -19.6522 47.3545 27.88
RightForeArm  -24.2533 6.04869 -0.394508
RightHand  -1.50293 16.2166 -8.4938
LeftUpLeg  15.135 7.02176 -3.89985
LeftLeg  16.2862 4.07812 1.56128
LeftFoot  -21.9336 0.268058 1.48838
LeftToes  -3.37426e-010 -1.91496e-010 5.23909e-011
160
root  42.4146 37.5115 1.9013 -175.867 -79.3858 170.49
RightUpLeg  -21.5885 -6.99821 -2.57583
RightLeg  17.98 2.13209 0.59173
RightFoot  6.17608 0.0731845 -0.199308
RightToes  -2.9104e-010 0 -3.6325e-017
Spine  6.19501 0.866614 13.2294
Spine1  8.48087 3.11806 -6.79397
HEad  2.38537 -25.799 -5.92278
LeftShoulder1  0.130234 3.13973 -29.6235
LeftArm  0.84688 4.70656 -38.1145
LeftForeArm  21.7326 -24.6571 -4.12628
LeftHand  -0.00982362 6.25346 2.83982
RightShoulder  -0.32093 -4.6318 21.1433
RightArm  -23.2349 45.1909 26.8953
RightForeArm  -20.9147 15.877 1.56766
RightHand  -1.79304 17.5322 -9.41284
LeftUpLeg  15.5876 6.9066 -1.70687
LeftLeg  20.1838 3.6676 1.82705
LeftFoot  -21.9991 -0.085265 -2.32514
LeftToes  -3.37426e-010 -1.91496e-010 5.23909e-011
